<?xml version="1.0" encoding="UTF-8" standalone="no"?><svg xmlns="http://www.w3.org/2000/svg" xmlns:xlink="http://www.w3.org/1999/xlink" contentScriptType="application/ecmascript" contentStyleType="text/css" height="400px" preserveAspectRatio="none" style="width:741px;height:400px;background:#333333;" version="1.1" viewBox="0 0 741 400" width="741.6667px" zoomAndPan="magnify"><defs/><g><rect fill="#48494B" height="41.2028" rx="8.3333" ry="8.3333" style="stroke:#545454;stroke-width:1.0416666666666667;" width="369.7917" x="178.6458" y="2.0833"/><text fill="#C0C0C0" font-family="Open Sans,Avenir,Nunito,Arial,Helvetica,SansSerif" font-size="20.8333" lengthAdjust="spacing" textLength="346.875" x="190.1042" y="30.5583">com.telenav.cactus.metadata</text><!--MD5=[cfe18d24b08a45e3894aa39c4426700c]
class BuildMetadata--><rect codeLine="7" fill="#282828" height="166.5243" id="BuildMetadata" rx="8.3333" ry="8.3333" style="stroke:#5E5E5E;stroke-width:1.0416666666666667;" width="256.25" x="478.125" y="53.7028"/><rect fill="#1B1B1A" height="31.3883" rx="8.3333" ry="8.3333" style="stroke:#1B1B1A;stroke-width:1.0416666666666667;" width="256.25" x="478.125" y="53.7028"/><rect fill="#1B1B1A" height="8.3333" style="stroke:#1B1B1A;stroke-width:1.0416666666666667;" width="256.25" x="478.125" y="76.7578"/><rect codeLine="7" fill="none" height="166.5243" id="BuildMetadata" rx="8.3333" ry="8.3333" style="stroke:#5E5E5E;stroke-width:1.0416666666666667;" width="256.25" x="478.125" y="53.7028"/><ellipse cx="552.6042" cy="69.397" fill="#0066CF" rx="10.4167" ry="10.4167" style="stroke:#0086EF;stroke-width:1.0416666666666667;"/><path d="M554.5146,73.822 Q554.0873,74.0417 553.6174,74.1516 Q553.1474,74.2615 552.6286,74.2615 Q550.7853,74.2615 549.8149,73.0469 Q548.8444,71.8323 548.8444,69.5374 Q548.8444,67.2363 549.8149,66.0217 Q550.7853,64.8071 552.6286,64.8071 Q553.1474,64.8071 553.6235,64.917 Q554.0995,65.0269 554.5146,65.2466 L554.5146,67.2485 Q554.0507,66.8213 553.6143,66.6229 Q553.1779,66.4246 552.714,66.4246 Q551.7253,66.4246 551.2217,67.2089 Q550.7182,67.9932 550.7182,69.5374 Q550.7182,71.0754 551.2217,71.8597 Q551.7253,72.644 552.714,72.644 Q553.1779,72.644 553.6143,72.4457 Q554.0507,72.2473 554.5146,71.8201 Z " fill="#000000"/><text fill="#D8BC00" font-family="Open Sans,Avenir,Nunito,Arial,Helvetica,SansSerif" font-size="12.5" font-weight="bold" lengthAdjust="spacing" textLength="92.7083" x="575.5208" y="74.1211">BuildMetadata</text><line style="stroke:#5E5E5E;stroke-width:1.5625;" x1="479.1667" x2="733.3333" y1="85.0911" y2="85.0911"/><ellipse cx="489.5833" cy="120.461" fill="#84BE84" rx="3.125" ry="3.125" style="stroke:#038048;stroke-width:1.0416666666666667;"/><text fill="#D8BC00" font-family="Open Sans,Avenir,Nunito,Arial,Helvetica,SansSerif" font-size="11.4583" lengthAdjust="spacing" textLength="208.3333" x="501.0417" y="127.3722">Map&lt;String,String&gt; buildProperties()</text><ellipse cx="489.5833" cy="140.2059" fill="#84BE84" rx="3.125" ry="3.125" style="stroke:#038048;stroke-width:1.0416666666666667;"/><text fill="#D8BC00" font-family="Open Sans,Avenir,Nunito,Arial,Helvetica,SansSerif" font-size="11.4583" lengthAdjust="spacing" textLength="139.5833" x="501.0417" y="147.1171">int currentBuildNumber()</text><ellipse cx="489.5833" cy="159.9508" fill="#84BE84" rx="3.125" ry="3.125" style="stroke:#038048;stroke-width:1.0416666666666667;"/><text fill="#D8BC00" font-family="Open Sans,Avenir,Nunito,Arial,Helvetica,SansSerif" font-size="11.4583" lengthAdjust="spacing" textLength="223.9583" x="501.0417" y="166.862">BuildMetadata of(Class&lt;?&gt; projectType)</text><line style="stroke:#5E5E5E;stroke-width:1.0416666666666667;" x1="479.1667" x2="576.0417" y1="103.2969" y2="103.2969"/><text fill="#D8BC00" font-family="Open Sans,Avenir,Nunito,Arial,Helvetica,SansSerif" font-size="11.4583" lengthAdjust="spacing" textLength="54.1667" x="579.1667" y="107.1065">(building)</text><line style="stroke:#5E5E5E;stroke-width:1.0416666666666667;" x1="636.4583" x2="733.3333" y1="103.2969" y2="103.2969"/><ellipse cx="489.5833" cy="203.6072" fill="#84BE84" rx="3.125" ry="3.125" style="stroke:#038048;stroke-width:1.0416666666666667;"/><text fill="#D8BC00" font-family="Open Sans,Avenir,Nunito,Arial,Helvetica,SansSerif" font-size="11.4583" lengthAdjust="spacing" textLength="219.7917" x="501.0417" y="210.5184">Map&lt;String,String&gt; projectProperties()</text><line style="stroke:#5E5E5E;stroke-width:1.0416666666666667;" x1="479.1667" x2="571.875" y1="186.4431" y2="186.4431"/><text fill="#D8BC00" font-family="Open Sans,Avenir,Nunito,Arial,Helvetica,SansSerif" font-size="11.4583" lengthAdjust="spacing" textLength="62.5" x="575" y="190.2527">(collection)</text><line style="stroke:#5E5E5E;stroke-width:1.0416666666666667;" x1="640.625" x2="733.3333" y1="186.4431" y2="186.4431"/><!--MD5=[4dfc6a72b8dd60daa1b635d583ff79da]
class Map--><rect fill="#282828" height="48.055" id="Map" rx="8.3333" ry="8.3333" style="stroke:#5E5E5E;stroke-width:1.0416666666666667;" width="64.5833" x="573.9583" y="325.5778"/><rect fill="#1B1B1A" height="31.3883" rx="8.3333" ry="8.3333" style="stroke:#1B1B1A;stroke-width:1.0416666666666667;" width="64.5833" x="573.9583" y="325.5778"/><rect fill="#1B1B1A" height="8.3333" style="stroke:#1B1B1A;stroke-width:1.0416666666666667;" width="64.5833" x="573.9583" y="348.6328"/><rect fill="none" height="48.055" id="Map" rx="8.3333" ry="8.3333" style="stroke:#5E5E5E;stroke-width:1.0416666666666667;" width="64.5833" x="573.9583" y="325.5778"/><ellipse cx="588.5417" cy="341.272" fill="#0066CF" rx="10.4167" ry="10.4167" style="stroke:#0086EF;stroke-width:1.0416666666666667;"/><path d="M590.4521,345.697 Q590.0248,345.9167 589.5549,346.0266 Q589.0849,346.1365 588.5661,346.1365 Q586.7228,346.1365 585.7524,344.9219 Q584.7819,343.7073 584.7819,341.4124 Q584.7819,339.1113 585.7524,337.8967 Q586.7228,336.6821 588.5661,336.6821 Q589.0849,336.6821 589.561,336.792 Q590.037,336.9019 590.4521,337.1216 L590.4521,339.1235 Q589.9882,338.6963 589.5518,338.4979 Q589.1154,338.2996 588.6515,338.2996 Q587.6628,338.2996 587.1592,339.0839 Q586.6557,339.8682 586.6557,341.4124 Q586.6557,342.9504 587.1592,343.7347 Q587.6628,344.519 588.6515,344.519 Q589.1154,344.519 589.5518,344.3207 Q589.9882,344.1223 590.4521,343.6951 Z " fill="#000000"/><text fill="#D8BC00" font-family="Open Sans,Avenir,Nunito,Arial,Helvetica,SansSerif" font-size="12.5" font-weight="bold" lengthAdjust="spacing" textLength="27.0833" x="605.2083" y="345.9961">Map</text><line style="stroke:#5E5E5E;stroke-width:1.0416666666666667;" x1="575" x2="637.5" y1="356.9661" y2="356.9661"/><line style="stroke:#5E5E5E;stroke-width:1.0416666666666667;" x1="575" x2="637.5" y1="365.2995" y2="365.2995"/><!--MD5=[9b6417834c061dcb7d4f7c51f115b1e9]
class BuildMetadataUpdater--><rect codeLine="17" fill="#282828" height="67.7999" id="BuildMetadataUpdater" rx="8.3333" ry="8.3333" style="stroke:#5E5E5E;stroke-width:1.0416666666666667;" width="200" x="7.2917" y="103.182"/><rect fill="#1B1B1A" height="31.3883" rx="8.3333" ry="8.3333" style="stroke:#1B1B1A;stroke-width:1.0416666666666667;" width="200" x="7.2917" y="103.182"/><rect fill="#1B1B1A" height="8.3333" style="stroke:#1B1B1A;stroke-width:1.0416666666666667;" width="200" x="7.2917" y="126.237"/><rect codeLine="17" fill="none" height="67.7999" id="BuildMetadataUpdater" rx="8.3333" ry="8.3333" style="stroke:#5E5E5E;stroke-width:1.0416666666666667;" width="200" x="7.2917" y="103.182"/><ellipse cx="30.3125" cy="118.8761" fill="#0066CF" rx="10.4167" ry="10.4167" style="stroke:#0086EF;stroke-width:1.0416666666666667;"/><path d="M32.2229,123.3012 Q31.7957,123.5209 31.3257,123.6308 Q30.8557,123.7406 30.3369,123.7406 Q28.4937,123.7406 27.5232,122.526 Q26.5527,121.3114 26.5527,119.0165 Q26.5527,116.7155 27.5232,115.5009 Q28.4937,114.2863 30.3369,114.2863 Q30.8557,114.2863 31.3318,114.3962 Q31.8079,114.506 32.2229,114.7257 L32.2229,116.7277 Q31.759,116.3005 31.3226,116.1021 Q30.8862,115.9037 30.4224,115.9037 Q29.4336,115.9037 28.9301,116.688 Q28.4265,117.4723 28.4265,119.0165 Q28.4265,120.5546 28.9301,121.3389 Q29.4336,122.1232 30.4224,122.1232 Q30.8862,122.1232 31.3226,121.9248 Q31.759,121.7265 32.2229,121.2992 Z " fill="#000000"/><text fill="#D8BC00" font-family="Open Sans,Avenir,Nunito,Arial,Helvetica,SansSerif" font-size="12.5" font-weight="bold" lengthAdjust="spacing" textLength="143.75" x="48.8542" y="123.6003">BuildMetadataUpdater</text><line style="stroke:#5E5E5E;stroke-width:1.5625;" x1="8.3333" x2="206.25" y1="134.5703" y2="134.5703"/><line style="stroke:#5E5E5E;stroke-width:1.0416666666666667;" x1="8.3333" x2="206.25" y1="142.9036" y2="142.9036"/><ellipse cx="18.75" cy="154.362" fill="#84BE84" rx="3.125" ry="3.125" style="stroke:#038048;stroke-width:1.0416666666666667;"/><text fill="#D8BC00" font-family="Open Sans,Avenir,Nunito,Arial,Helvetica,SansSerif" font-size="11.4583" lengthAdjust="spacing" textLength="167.7083" x="30.2083" y="161.2732">void main(String[] arguments)</text><!--MD5=[dada5173eb0da61fc6488f0a07577a1f]
class BuildName--><rect codeLine="23" fill="#282828" height="111.4563" id="BuildName" rx="8.3333" ry="8.3333" style="stroke:#5E5E5E;stroke-width:1.0416666666666667;" width="197.9167" x="243.75" y="81.307"/><rect fill="#1B1B1A" height="31.3883" rx="8.3333" ry="8.3333" style="stroke:#1B1B1A;stroke-width:1.0416666666666667;" width="197.9167" x="243.75" y="81.307"/><rect fill="#1B1B1A" height="8.3333" style="stroke:#1B1B1A;stroke-width:1.0416666666666667;" width="197.9167" x="243.75" y="104.362"/><rect codeLine="23" fill="none" height="111.4563" id="BuildName" rx="8.3333" ry="8.3333" style="stroke:#5E5E5E;stroke-width:1.0416666666666667;" width="197.9167" x="243.75" y="81.307"/><ellipse cx="300.5208" cy="97.0011" fill="#0066CF" rx="10.4167" ry="10.4167" style="stroke:#0086EF;stroke-width:1.0416666666666667;"/><path d="M302.4312,101.4262 Q302.004,101.6459 301.534,101.7558 Q301.064,101.8656 300.5452,101.8656 Q298.702,101.8656 297.7315,100.651 Q296.7611,99.4364 296.7611,97.1415 Q296.7611,94.8405 297.7315,93.6259 Q298.702,92.4113 300.5452,92.4113 Q301.064,92.4113 301.5401,92.5212 Q302.0162,92.631 302.4312,92.8507 L302.4312,94.8527 Q301.9674,94.4255 301.531,94.2271 Q301.0946,94.0287 300.6307,94.0287 Q299.6419,94.0287 299.1384,94.813 Q298.6348,95.5973 298.6348,97.1415 Q298.6348,98.6796 299.1384,99.4639 Q299.6419,100.2482 300.6307,100.2482 Q301.0946,100.2482 301.531,100.0498 Q301.9674,99.8515 302.4312,99.4242 Z " fill="#000000"/><text fill="#D8BC00" font-family="Open Sans,Avenir,Nunito,Arial,Helvetica,SansSerif" font-size="12.5" font-weight="bold" lengthAdjust="spacing" textLength="69.7917" x="323.4375" y="101.7253">BuildName</text><line style="stroke:#5E5E5E;stroke-width:1.5625;" x1="244.7917" x2="440.625" y1="112.6953" y2="112.6953"/><line style="stroke:#5E5E5E;stroke-width:1.0416666666666667;" x1="244.7917" x2="440.625" y1="121.0286" y2="121.0286"/><ellipse cx="255.2083" cy="132.487" fill="#84BE84" rx="3.125" ry="3.125" style="stroke:#038048;stroke-width:1.0416666666666667;"/><text fill="#D8BC00" font-family="Open Sans,Avenir,Nunito,Arial,Helvetica,SansSerif" font-size="11.4583" lengthAdjust="spacing" textLength="86.4583" x="266.6667" y="139.3982">String current()</text><ellipse cx="255.2083" cy="176.1434" fill="#84BE84" rx="3.125" ry="3.125" style="stroke:#038048;stroke-width:1.0416666666666667;"/><text fill="#D8BC00" font-family="Open Sans,Avenir,Nunito,Arial,Helvetica,SansSerif" font-size="11.4583" lengthAdjust="spacing" textLength="165.625" x="266.6667" y="183.0546">String name(int buildNumber)</text><line style="stroke:#5E5E5E;stroke-width:1.0416666666666667;" x1="244.7917" x2="314.5833" y1="158.9793" y2="158.9793"/><text fill="#D8BC00" font-family="Open Sans,Avenir,Nunito,Arial,Helvetica,SansSerif" font-size="11.4583" lengthAdjust="spacing" textLength="50" x="317.7083" y="162.7889">(naming)</text><line style="stroke:#5E5E5E;stroke-width:1.0416666666666667;" x1="370.8333" x2="440.625" y1="158.9793" y2="158.9793"/><!--MD5=[887914d50071594500a73ce9bfc57191]
class BuildMetadata.Type--><rect codeLine="31" fill="#282828" height="87.5448" id="BuildMetadata.Type" rx="8.3333" ry="8.3333" style="stroke:#5E5E5E;stroke-width:1.0416666666666667;" width="164.5833" x="25" y="305.7861"/><rect fill="#1B1B1A" height="31.3883" rx="8.3333" ry="8.3333" style="stroke:#1B1B1A;stroke-width:1.0416666666666667;" width="164.5833" x="25" y="305.7861"/><rect fill="#1B1B1A" height="8.3333" style="stroke:#1B1B1A;stroke-width:1.0416666666666667;" width="164.5833" x="25" y="328.8411"/><rect codeLine="31" fill="none" height="87.5448" id="BuildMetadata.Type" rx="8.3333" ry="8.3333" style="stroke:#5E5E5E;stroke-width:1.0416666666666667;" width="164.5833" x="25" y="305.7861"/><ellipse cx="39.5833" cy="321.4803" fill="#CF6300" rx="10.4167" ry="10.4167" style="stroke:#EF8300;stroke-width:1.0416666666666667;"/><path d="M42.6392,326.1678 L36.9629,326.1678 L36.9629,317.0553 L42.6392,317.0553 L42.6392,318.6422 L38.7634,318.6422 L38.7634,320.6075 L42.2729,320.6075 L42.2729,322.1944 L38.7634,322.1944 L38.7634,324.5809 L42.6392,324.5809 Z " fill="#000000"/><text fill="#D8BC00" font-family="Open Sans,Avenir,Nunito,Arial,Helvetica,SansSerif" font-size="12.5" font-weight="bold" lengthAdjust="spacing" textLength="127.0833" x="56.25" y="326.2044">BuildMetadata.Type</text><line style="stroke:#5E5E5E;stroke-width:1.0416666666666667;" x1="26.0417" x2="188.5417" y1="337.1745" y2="337.1745"/><text fill="#D8BC00" font-family="Open Sans,Avenir,Nunito,Arial,Helvetica,SansSerif" font-size="11.4583" lengthAdjust="spacing" textLength="53.125" x="34.375" y="355.544">CURRENT</text><text fill="#D8BC00" font-family="Open Sans,Avenir,Nunito,Arial,Helvetica,SansSerif" font-size="11.4583" lengthAdjust="spacing" textLength="47.9167" x="34.375" y="375.2889">PROJECT</text><line style="stroke:#5E5E5E;stroke-width:1.0416666666666667;" x1="26.0417" x2="188.5417" y1="384.9976" y2="384.9976"/><!--MD5=[3211624131efcac8132cba40716e1b88]
link BuildMetadata to Map--><path codeLine="6" d="M606.25,220.6403 C606.25,255.8903 606.25,294.7132 606.25,320.2236 " fill="none" id="BuildMetadata-to-Map" style="stroke:#545454;stroke-width:1.5625;"/><polygon fill="#545454" points="606.25,325.4528,610.4167,316.0778,606.25,320.2445,602.0833,316.0778,606.25,325.4528" style="stroke:#545454;stroke-width:1.5625;"/><text fill="#A0A0A0" font-family="Open Sans,Avenir,Nunito,Arial,Helvetica,SansSerif" font-size="12.5" font-weight="bold" lengthAdjust="spacing" textLength="45.8333" x="610.4167" y="267.8711">creates</text><!--MD5=[b46f2d3c59d35b555b6ae4cd8f0d4a19]
link BuildMetadataUpdater to BuildName--><!--MD5=[8e9926cdf18214ebf9f3d2902b3f2b2b]
link BuildMetadataUpdater to BuildMetadata.Type--><!--MD5=[7a96bee4561dda8468b2eaa58d6b71b0]
@startuml

    !include lexakai.theme
    
    title "com.telenav.cactus.metadata"
    
    BuildMetadata - -> Map : "creates"
    class BuildMetadata
    {
        - -(building)- -
        +Map<String,String> buildProperties()
        +int currentBuildNumber()
        +BuildMetadata of(Class<?> projectType)
        - -(collection)- -
        +Map<String,String> projectProperties()
    }
    
    class BuildMetadataUpdater
    {
        - -
        +void main(String[] arguments)
    }
    
    class BuildName
    {
        - -
        +String current()
        - -(naming)- -
        +String name(int buildNumber)
    }
    
    enum BuildMetadata.Type
    {
        CURRENT
        PROJECT
    }
    
@enduml

@startuml









skinparam backgroundColor #333333






skinparam  {
    defaultFontName   "Open Sans,Avenir,Nunito,Arial,Helvetica,SansSerif"
    defaultFontSize   12
    defaultTextAlignment left
    shadowing false
    RoundCorner 10
    TitleFontSize 18
}

skinparam defaultFontName       "Open Sans,Avenir,Nunito,Arial,Helvetica,SansSerif"
skinparam defaultFontSize       12
skinparam dpi                   100
skinparam shadowing             false
skinparam roundcorner           16
skinparam ParticipantPadding    40
skinparam BoxPadding            40
skinparam Padding               3
skinparam ArrowColor            #545454
skinparam stereotype {
    CBackgroundColor #0066cf
    CBorderColor #0086ef
    ABackgroundColor #C8Ac00
    ABorderColor #D8Bc00
    IBackgroundColor #008400
    IBorderColor #239c23
    EBackgroundColor #cf6300
    EBorderColor #ef8300
    NBackgroundColor #3380b9
    NBorderColor #004d86
}
skinparam title {
	FontColor	                 #c0c0c0
 	BorderColor                  #545454
	FontSize	    	         20
	BorderRoundCorner            16
	BorderThickness 	         1
	BackgroundColor              #48494b
}


skinparam legend {
	BackgroundColor #303030
	BorderColor #404040
	FontColor #a0a0a0
}

	skinparam swimlane {
	BorderColor #5e5e5e
	BorderThickness 2
	TitleBackgroundColor  #6d6d6d-#484848
	TitleFontColor #303030
}

skinparam activity {
		FontColor #C8Ac00
	BorderColor #333333
	BackgroundColor #333333-#333333
	BarColor #00FF00
	StartColor #0060a8
	EndColor #0060a8
	DiamondBackgroundColor #6d6d6d-#3a3a3a
  	DiamondBorderColor #3a3a3a
  	DiamondFontColor #fefefe
}


skinparam participant {
		FontColor #C8Ac00
	BorderColor #333333
	BackgroundColor #333333-#333333
	ParticipantBorderThickness 2
}


skinparam actor {
		FontColor #C8Ac00
	BorderColor #333333
	BackgroundColor #333333-#333333
}


skinparam arrow {
	Thickness 1.5
	Color #545454
	FontColor #a0a0a0
    FontStyle bold
    MessageAlignment center
}



skinparam sequence {
	BorderColor #303030
	TitleFontColor #303030
	BackgroundColor #333333
	StartColor #303030
	EndColor #303030
	BoxBackgroundColor #333333
	BoxBorderColor #484848
	BoxFontColor #484848
	LifeLineBorderColor #484848
	LifeLineBorderThickness 2
	LifeLineBackgroundColor #3a3a3a
	GroupBorderColor #484848
	GroupFontColor #484848
	GroupHeaderFontColor #0060a8
	GroupBackgroundColor #484848
	GroupHeaderBackgroundColor #333333
	DividerBackgroundColor #484848
    DividerBorderColor #484848
    DividerBorderThickness 2
    DividerFontColor #D8Bc00
	ReferenceBackgroundColor #333333
	ReferenceBorderColor #484848
	ReferenceFontColor #fefefe
	ReferenceHeaderBackgroundColor #484848
}


skinparam partition {
	BorderColor #303030
	FontColor #333333
	BackgroundColor #333333
}


skinparam collections {
		FontColor #C8Ac00
	BorderColor #333333
	BackgroundColor #333333-#333333
}


skinparam control {
		FontColor #C8Ac00
	BorderColor #333333
	BackgroundColor #333333-#333333
}


skinparam entity {
		FontColor #C8Ac00
	BorderColor #333333
	BackgroundColor #333333-#333333
}


skinparam boundary {
		FontColor #C8Ac00
	BorderColor #333333
	BackgroundColor #333333-#333333
}


skinparam agent {
	BackgroundColor #ff8000
	BorderColor #ff9933
	FontColor #484848
}


skinparam note {
	BorderThickness 1
	BackgroundColor #1b1b1a
	BorderColor #5e5e5e
	FontSize 11
	FontColor #a0a0a0
}


skinparam artifact {
	BorderThickness 10
	BorderColor #5e5e5e
	BackgroundColor #1b1b1a
	FontColor #D8Bc00
}


skinparam component {
		FontColor #C8Ac00
	BorderColor #333333
	BackgroundColor #333333-#333333
}


skinparam interface {
	BackgroundColor  #008400
	BorderColor  #007F00
	FontColor #484848
}


skinparam storage {
	BackgroundColor #ff8000
  	BorderColor #cc6600
	FontColor #222222
}


skinparam node {
	BackgroundColor #333333
	BorderColor #333333
	FontColor #C8Ac00
}


skinparam cloud {
	BackgroundColor #484848-black
	BorderColor #484848
	FontColor #D8Bc00
}


skinparam database {
		FontColor #C8Ac00
	BorderColor #333333
	BackgroundColor #333333-#333333
	BackgroundColor  #333333
}


skinparam class {
		FontColor #C8Ac00
	BorderColor #333333
	BackgroundColor #333333-#333333
	HeaderBackgroundColor #1b1b1a
    BackgroundColor #282828
    BorderColor #5e5e5e
 	StereotypeFontColor #a0a0a0
    StereotypeFontStyle bold
	BorderThickness 1
	AttributeFontColor #D8Bc00
	AttributeFontSize 11
    FontColor #D8Bc00
    FontStyle bold
}


skinparam object {
		FontColor #C8Ac00
	BorderColor #333333
	BackgroundColor #333333-#333333
	StereotypeFontColor #484848
	BorderThickness 1
	AttributeFontColor #fefefe
	AttributeFontSize 11
}


skinparam usecase {
		FontColor #C8Ac00
	BorderColor #333333
	BackgroundColor #333333-#333333
	BorderThickness 2
	StereotypeFontColor #303030
}


skinparam rectangle {
		FontColor #C8Ac00
	BorderColor #333333
	BackgroundColor #333333-#333333
	BackgroundColor #333333
	BorderThickness 2
	StereotypeFontColor #303030
}


skinparam package {
		FontColor #C8Ac00
	BorderColor #333333
	BackgroundColor #333333-#333333
	BackgroundColor #333333
	BorderThickness 2
}


skinparam folder {
	BackgroundColor #6d6d6d
  	BorderColor #ff8000
	FontColor #ff8000
	BorderThickness 2
}


skinparam frame {
	BackgroundColor #6d6d6d
  	BorderColor #0060a8
	FontColor #0060a8
	BorderThickness 2
}


skinparam state {
		FontColor #C8Ac00
	BorderColor #333333
	BackgroundColor #333333-#333333
	StartColor #0060a8
	EndColor #0060a8
	AttributeFontColor #fefefe
	AttributeFontSize 11
}


skinparam queue {
		FontColor #C8Ac00
	BorderColor #333333
	BackgroundColor #333333-#333333
}


skinparam card {
	BackgroundColor #0060a8
	BorderColor #004d86
	FontColor $INFO_TEXT
}


skinparam file {
	BackgroundColor #6d6d6d-#484848
	BorderColor #0060a8
	FontColor #fefefe
}


skinparam stack {
		FontColor #C8Ac00
	BorderColor #333333
	BackgroundColor #333333-#333333
}

    
    title "com.telenav.cactus.metadata"
    
    BuildMetadata - -> Map : "creates"
    class BuildMetadata
    {
        - -(building)- -
        +Map<String,String> buildProperties()
        +int currentBuildNumber()
        +BuildMetadata of(Class<?> projectType)
        - -(collection)- -
        +Map<String,String> projectProperties()
    }
    
    class BuildMetadataUpdater
    {
        - -
        +void main(String[] arguments)
    }
    
    class BuildName
    {
        - -
        +String current()
        - -(naming)- -
        +String name(int buildNumber)
    }
    
    enum BuildMetadata.Type
    {
        CURRENT
        PROJECT
    }
    
@enduml

PlantUML version 1.2021.01(Tue Feb 02 00:55:08 MST 2021)
(GPL source distribution)
Java Runtime: OpenJDK Runtime Environment
JVM: OpenJDK 64-Bit Server VM
Default Encoding: UTF-8
Language: en
Country: US
--></g></svg>
